<svg width="1226" height="278" viewBox="0 0 1226 278" fill="none" xmlns="http://www.w3.org/2000/svg">
<path d="M259.126 187.984C257.268 186.126 255.063 184.652 252.636 183.647C250.209 182.641 247.608 182.124 244.981 182.124C242.354 182.124 239.752 182.641 237.325 183.647C234.898 184.652 232.693 186.126 230.836 187.984L217.116 201.704C215.241 203.583 212.696 204.641 210.041 204.643C207.387 204.646 204.84 203.594 202.961 201.719C201.082 199.844 200.024 197.299 200.022 194.645C200.019 191.99 201.071 189.443 202.946 187.564L271.756 118.744C273.711 116.912 275.279 114.705 276.364 112.255C277.45 109.805 278.033 107.162 278.077 104.482C278.122 101.803 277.627 99.1415 276.623 96.6569C275.619 94.1722 274.126 91.9147 272.232 90.0183C270.339 88.122 268.083 86.6256 265.6 85.618C263.117 84.6104 260.456 84.1121 257.777 84.1528C255.097 84.1934 252.453 84.7722 250.001 85.8547C247.55 86.9372 245.341 88.5013 243.506 90.4542L243.306 90.6542C242.383 91.6093 241.28 92.3711 240.06 92.8952C238.84 93.4193 237.528 93.6952 236.2 93.7067C234.872 93.7183 233.555 93.4652 232.326 92.9624C231.097 92.4596 229.981 91.7171 229.042 90.7782C228.103 89.8392 227.36 88.7227 226.858 87.4938C226.355 86.2648 226.102 84.948 226.113 83.6202C226.125 82.2924 226.401 80.9802 226.925 79.7602C227.449 78.5402 228.211 77.4367 229.166 76.5142L240.556 65.1242C244.307 61.3727 246.415 56.2846 246.415 50.9792C246.415 45.6738 244.307 40.5857 240.556 36.8342C236.804 33.0827 231.716 30.9752 226.411 30.9752C221.105 30.9752 216.017 33.0827 212.266 36.8342L76.9458 172.164C75.0694 174.039 72.5249 175.092 69.8722 175.091C67.2195 175.09 64.6759 174.036 62.8008 172.159C60.9257 170.283 59.8728 167.738 59.8737 165.086C59.8747 162.433 60.9293 159.889 62.8057 158.014L186.946 33.8942C190.589 30.1222 192.605 25.0701 192.559 19.8262C192.514 14.5823 190.41 9.56602 186.702 5.85786C182.994 2.1497 177.978 0.0463244 172.734 0.000756053C167.49 -0.0448123 162.438 1.97107 158.666 5.61424L103.466 60.8142C102.537 61.7433 101.434 62.4803 100.22 62.9832C99.0058 63.486 97.7047 63.7448 96.3908 63.7448C93.7371 63.7448 91.1922 62.6906 89.3158 60.8142C87.4394 58.9378 86.3852 56.3929 86.3852 53.7392C86.3852 51.0856 87.4394 48.5406 89.3158 46.6642L89.4258 46.5642C91.2833 44.7073 92.7569 42.5028 93.7625 40.0764C94.768 37.65 95.2858 35.0493 95.2863 32.4228C95.2867 29.7963 94.7699 27.1954 93.7652 24.7686C92.7605 22.3419 91.2876 20.1368 89.4307 18.2792C87.5739 16.4217 85.3693 14.9481 82.9429 13.9425C80.5165 12.937 77.9158 12.4192 75.2893 12.4187C72.6628 12.4182 70.0619 12.9351 67.6352 13.9398C65.2084 14.9445 63.0033 16.4173 61.1458 18.2742L19.1458 60.2742C15.3956 64.0257 13.2893 69.1133 13.2902 74.4178C13.2912 79.7222 15.3993 84.8091 19.1507 88.5592C22.9022 92.3094 27.9898 94.4157 33.2943 94.4147C38.5988 94.4138 43.6856 92.3057 47.4358 88.5542L61.0257 74.9642C62.9118 73.1427 65.4378 72.1347 68.0598 72.1575C70.6817 72.1803 73.1899 73.232 75.0439 75.086C76.898 76.9401 77.9497 79.4483 77.9725 82.0702C77.9953 84.6922 76.9873 87.2182 75.1658 89.1042L6.10577 158.174C4.19556 160.019 2.67192 162.226 1.62374 164.666C0.575561 167.106 0.0238314 169.731 0.00075512 172.386C-0.0223212 175.042 0.483724 177.675 1.48934 180.133C2.49496 182.591 3.98002 184.824 5.85787 186.702C7.73573 188.58 9.96876 190.065 12.4267 191.071C14.8846 192.076 17.5182 192.582 20.1738 192.559C22.8294 192.536 25.4538 191.984 27.8939 190.936C30.3339 189.888 32.5408 188.364 34.3858 186.454L34.5257 186.314C36.4008 184.438 38.9445 183.383 41.5972 183.382C44.2499 183.381 46.7944 184.434 48.6708 186.309C50.5472 188.184 51.6018 190.728 51.6028 193.381C51.6037 196.033 50.5509 198.578 48.6758 200.454L37.5358 211.594C33.8926 215.366 31.8767 220.418 31.9223 225.662C31.9679 230.906 34.0712 235.922 37.7794 239.631C41.4875 243.339 46.5038 245.442 51.7477 245.488C56.9917 245.533 62.0437 243.517 65.8158 239.874L200.876 104.804C202.751 102.928 205.295 101.873 207.947 101.872C210.6 101.871 213.144 102.924 215.021 104.799C216.897 106.674 217.952 109.218 217.953 111.871C217.954 114.523 216.901 117.068 215.026 118.944L90.9458 243.014C89.0356 244.859 87.5119 247.066 86.4637 249.506C85.4156 251.946 84.8638 254.571 84.8408 257.226C84.8177 259.882 85.3237 262.515 86.3293 264.973C87.335 267.431 88.82 269.664 90.6979 271.542C92.5757 273.42 94.8088 274.905 97.2667 275.911C99.7246 276.916 102.358 277.422 105.014 277.399C107.669 277.376 110.294 276.824 112.734 275.776C115.174 274.728 117.381 273.204 119.226 271.294L174.676 215.854C176.562 214.033 179.088 213.025 181.71 213.048C184.332 213.07 186.84 214.122 188.694 215.976C190.548 217.83 191.6 220.338 191.623 222.96C191.645 225.582 190.637 228.108 188.816 229.994C186.958 231.851 185.485 234.056 184.479 236.482C183.473 238.908 182.956 241.509 182.955 244.136C182.955 246.762 183.472 249.363 184.476 251.79C185.481 254.217 186.954 256.422 188.811 258.279C192.561 262.031 197.648 264.139 202.952 264.14C205.579 264.14 208.18 263.623 210.606 262.619C213.033 261.614 215.238 260.141 217.096 258.284L259.096 216.284C260.957 214.429 262.435 212.225 263.444 209.798C264.453 207.371 264.974 204.769 264.977 202.14C264.979 199.512 264.464 196.909 263.46 194.48C262.456 192.051 260.983 189.844 259.126 187.984Z" fill="#6935D4"/>
<path d="M365.22 192.468C357.984 192.468 351.615 191.77 346.114 190.373C340.655 188.977 335.577 187.242 330.88 185.168V162.698H333.038C337.777 166.718 343.004 169.807 348.717 171.965C354.429 174.123 359.973 175.202 365.347 175.202C366.702 175.202 368.479 175.054 370.679 174.758C372.922 174.462 374.721 173.996 376.075 173.362C377.725 172.642 379.122 171.648 380.264 170.378C381.407 169.066 381.978 167.353 381.978 165.237C381.978 162.867 381.047 160.941 379.185 159.46C377.323 157.979 375.102 156.9 372.52 156.223C369.304 155.377 365.855 154.573 362.174 153.811C358.534 153.049 355.128 152.118 351.954 151.018C344.633 148.437 339.385 144.966 336.212 140.608C333.038 136.249 331.451 130.79 331.451 124.231C331.451 115.386 335.196 108.235 342.686 102.776C350.177 97.2744 359.529 94.5237 370.743 94.5237C376.371 94.5237 381.957 95.095 387.501 96.2376C393.087 97.3802 398.08 98.9248 402.481 100.871V122.453H400.386C396.874 119.449 392.579 116.91 387.501 114.836C382.465 112.763 377.281 111.726 371.949 111.726C369.875 111.726 368.013 111.874 366.363 112.17C364.713 112.466 362.978 113.038 361.158 113.884C359.677 114.561 358.386 115.577 357.286 116.931C356.228 118.243 355.699 119.724 355.699 121.374C355.699 123.786 356.545 125.712 358.238 127.151C359.973 128.547 363.295 129.817 368.204 130.959C371.378 131.679 374.425 132.377 377.344 133.054C380.307 133.731 383.459 134.662 386.802 135.847C393.362 138.217 398.228 141.412 401.402 145.432C404.618 149.41 406.226 154.678 406.226 161.238C406.226 170.632 402.524 178.186 395.118 183.899C387.755 189.612 377.789 192.468 365.22 192.468ZM512.362 190.754H488.748V128.103L471.546 168.537H455.36L438.158 128.103V190.754H415.814V96.2376H443.172L464.119 142.893L485.003 96.2376H512.362V190.754ZM519.22 190.754L551.148 96.2376H577.047L608.976 190.754H584.537L578.634 171.457H548.927L543.023 190.754H519.22ZM573.429 154.319L563.78 123.152L554.132 154.319H573.429ZM703.177 190.754H674.232L647.889 156.096H639.383V190.754H615.77V96.2376H653.793C659.04 96.2376 663.61 96.5762 667.503 97.2532C671.397 97.888 674.994 99.2422 678.294 101.316C681.68 103.474 684.367 106.225 686.356 109.568C688.345 112.868 689.339 117.079 689.339 122.2C689.339 129.436 687.71 135.318 684.452 139.846C681.193 144.332 676.835 147.908 671.376 150.574L703.177 190.754ZM664.964 125.183C664.964 122.813 664.499 120.782 663.568 119.089C662.679 117.354 661.177 116.021 659.061 115.09C657.58 114.455 655.93 114.053 654.11 113.884C652.29 113.715 650.026 113.63 647.318 113.63H639.383V139.084H646.175C649.476 139.084 652.269 138.894 654.554 138.513C656.882 138.09 658.85 137.222 660.458 135.91C661.981 134.726 663.102 133.308 663.822 131.658C664.584 130.007 664.964 127.849 664.964 125.183ZM725.777 190.754V114.265H697.848V96.2376H777.447V114.265H749.518V190.754H725.777ZM881.171 190.754H857.557V128.103L840.355 168.537H824.169L806.967 128.103V190.754H784.623V96.2376H811.981L832.928 142.893L853.812 96.2376H881.171V190.754ZM945.285 190.754H894.376V174.25H907.96V112.742H894.376V96.2376H945.285V112.742H931.701V174.25H945.285V190.754ZM1039.42 190.754H1016.57L980.136 124.866V190.754H958.427V96.2376H987.562L1017.71 150.383V96.2376H1039.42V190.754ZM1140.42 143.591C1140.42 152.393 1138.49 160.285 1134.64 167.268C1130.79 174.208 1125.92 179.54 1120.04 183.264C1115.13 186.438 1109.78 188.49 1103.98 189.421C1098.23 190.31 1092.09 190.754 1085.57 190.754H1055.99V96.2376H1085.32C1091.96 96.2376 1098.18 96.6608 1103.98 97.5071C1109.78 98.3535 1115.22 100.406 1120.29 103.664C1126.52 107.642 1131.42 113.017 1135.02 119.787C1138.62 126.516 1140.42 134.451 1140.42 143.591ZM1116.04 143.401C1116.04 137.18 1114.96 131.869 1112.8 127.468C1110.69 123.025 1107.41 119.555 1102.97 117.058C1099.75 115.281 1096.36 114.307 1092.81 114.138C1089.3 113.969 1085.09 113.884 1080.18 113.884H1079.73V173.044H1080.18C1085.51 173.044 1090 172.96 1093.63 172.79C1097.32 172.579 1100.81 171.436 1104.11 169.363C1108 166.908 1110.96 163.523 1112.99 159.206C1115.03 154.89 1116.04 149.621 1116.04 143.401ZM1181.11 192.468C1173.87 192.468 1167.5 191.77 1162 190.373C1156.54 188.977 1151.46 187.242 1146.77 185.168V162.698H1148.92C1153.66 166.718 1158.89 169.807 1164.6 171.965C1170.32 174.123 1175.86 175.202 1181.23 175.202C1182.59 175.202 1184.37 175.054 1186.57 174.758C1188.81 174.462 1190.61 173.996 1191.96 173.362C1193.61 172.642 1195.01 171.648 1196.15 170.378C1197.29 169.066 1197.87 167.353 1197.87 165.237C1197.87 162.867 1196.93 160.941 1195.07 159.46C1193.21 157.979 1190.99 156.9 1188.41 156.223C1185.19 155.377 1181.74 154.573 1178.06 153.811C1174.42 153.049 1171.01 152.118 1167.84 151.018C1160.52 148.437 1155.27 144.966 1152.1 140.608C1148.92 136.249 1147.34 130.79 1147.34 124.231C1147.34 115.386 1151.08 108.235 1158.57 102.776C1166.06 97.2744 1175.42 94.5237 1186.63 94.5237C1192.26 94.5237 1197.84 95.095 1203.39 96.2376C1208.97 97.3802 1213.97 98.9248 1218.37 100.871V122.453H1216.27C1212.76 119.449 1208.47 116.91 1203.39 114.836C1198.35 112.763 1193.17 111.726 1187.84 111.726C1185.76 111.726 1183.9 111.874 1182.25 112.17C1180.6 112.466 1178.86 113.038 1177.05 113.884C1175.56 114.561 1174.27 115.577 1173.17 116.931C1172.12 118.243 1171.59 119.724 1171.59 121.374C1171.59 123.786 1172.43 125.712 1174.13 127.151C1175.86 128.547 1179.18 129.817 1184.09 130.959C1187.26 131.679 1190.31 132.377 1193.23 133.054C1196.19 133.731 1199.35 134.662 1202.69 135.847C1209.25 138.217 1214.12 141.412 1217.29 145.432C1220.51 149.41 1222.11 154.678 1222.11 161.238C1222.11 170.632 1218.41 178.186 1211.01 183.899C1203.64 189.612 1193.68 192.468 1181.11 192.468Z" fill="white"/>
</svg>
