<svg width="213" height="44" viewBox="0 0 213 44" fill="none" xmlns="http://www.w3.org/2000/svg">
<path d="M45.3672 29.2945C45.0421 29.0075 44.656 28.7798 44.2311 28.6245C43.8061 28.4692 43.3507 28.3892 42.8907 28.3892C42.4308 28.3892 41.9754 28.4692 41.5504 28.6245C41.1255 28.7798 40.7394 29.0075 40.4143 29.2945L38.0122 31.4136C37.6839 31.7038 37.2384 31.8671 36.7736 31.8676C36.3089 31.868 35.863 31.7055 35.534 31.4159C35.205 31.1263 35.0199 30.7333 35.0194 30.3232C35.0189 29.9132 35.2031 29.5198 35.5313 29.2296L47.5785 18.5999C47.9208 18.3169 48.1952 17.976 48.3853 17.5976C48.5755 17.2192 48.6775 16.8109 48.6852 16.3971C48.693 15.9832 48.6065 15.5722 48.4307 15.1884C48.2549 14.8046 47.9934 14.4559 47.6619 14.163C47.3304 13.8701 46.9355 13.639 46.5007 13.4834C46.066 13.3277 45.6002 13.2508 45.131 13.2571C44.6619 13.2633 44.199 13.3527 43.7698 13.5199C43.3406 13.6871 42.9538 13.9287 42.6325 14.2304L42.5975 14.2612C42.436 14.4088 42.2428 14.5264 42.0292 14.6074C41.8156 14.6883 41.5859 14.7309 41.3534 14.7327C41.1209 14.7345 40.8904 14.6954 40.6752 14.6178C40.46 14.5401 40.2646 14.4254 40.1002 14.2804C39.9358 14.1354 39.8058 13.9629 39.7178 13.7731C39.6297 13.5833 39.5854 13.3799 39.5875 13.1748C39.5895 12.9697 39.6378 12.767 39.7295 12.5786C39.8213 12.3901 39.9547 12.2197 40.1219 12.0772L42.116 10.318C42.7728 9.73853 43.1418 8.95264 43.1418 8.13319C43.1418 7.31374 42.7728 6.52785 42.116 5.94841C41.4592 5.36897 40.5684 5.04344 39.6396 5.04344C38.7107 5.04344 37.8199 5.36897 37.1631 5.94841L13.4715 26.851C13.143 27.1406 12.6975 27.3032 12.2331 27.3031C11.7687 27.3029 11.3233 27.14 10.995 26.8502C10.6668 26.5604 10.4824 26.1674 10.4826 25.7576C10.4827 25.3479 10.6674 24.955 10.9959 24.6654L32.7301 5.49431C33.3679 4.91169 33.7209 4.13137 33.7129 3.32141C33.7049 2.51146 33.3367 1.73666 32.6874 1.16391C32.0382 0.591166 31.16 0.266287 30.2419 0.259249C29.3238 0.252211 28.4393 0.563577 27.7789 1.12629L18.1146 9.65227C17.9519 9.79577 17.7588 9.90961 17.5463 9.98727C17.3337 10.0649 17.1059 10.1049 16.8759 10.1049C16.4113 10.1049 15.9657 9.94209 15.6372 9.65227C15.3087 9.36245 15.1242 8.96936 15.1242 8.55949C15.1242 8.14962 15.3087 7.75654 15.6372 7.46671L15.6565 7.45127C15.9817 7.16446 16.2397 6.82395 16.4158 6.44918C16.5918 6.0744 16.6825 5.67271 16.6825 5.26703C16.6826 4.86135 16.5921 4.45963 16.4162 4.0848C16.2403 3.70998 15.9825 3.36938 15.6574 3.08247C15.3323 2.79556 14.9463 2.56795 14.5215 2.41264C14.0967 2.25733 13.6413 2.17735 13.1815 2.17728C12.7217 2.17721 12.2663 2.25704 11.8414 2.41222C11.4166 2.5674 11.0305 2.79489 10.7053 3.0817L3.352 9.56886C2.69543 10.1483 2.32667 10.9341 2.32683 11.7534C2.32699 12.5727 2.69607 13.3584 3.35288 13.9377C4.00968 14.5169 4.90041 14.8422 5.8291 14.8421C6.7578 14.8419 7.64839 14.5163 8.30496 13.9369L10.6843 11.8378C11.0145 11.5565 11.4567 11.4008 11.9158 11.4043C12.3748 11.4078 12.8139 11.5703 13.1385 11.8566C13.4632 12.143 13.6473 12.5304 13.6513 12.9354C13.6553 13.3404 13.4788 13.7305 13.1599 14.0218L1.06899 24.6901C0.734551 24.9751 0.467795 25.316 0.284281 25.6928C0.100768 26.0697 0.00417236 26.4751 0.000132205 26.8853C-0.00390795 27.2954 0.0846894 27.7022 0.260751 28.0818C0.436813 28.4615 0.696814 28.8064 1.02558 29.0964C1.35436 29.3865 1.74531 29.6159 2.17564 29.7712C2.60597 29.9265 3.06705 30.0047 3.53199 30.0011C3.99692 29.9975 4.4564 29.9123 4.8836 29.7504C5.31081 29.5885 5.69718 29.3532 6.02019 29.0582L6.0447 29.0365C6.37299 28.7467 6.81833 28.5838 7.28276 28.5837C7.74719 28.5835 8.19267 28.7461 8.52118 29.0358C8.8497 29.3254 9.03435 29.7183 9.03451 30.128C9.03468 30.5377 8.85034 30.9307 8.52206 31.2205L6.57169 32.9412C5.93385 33.5238 5.58091 34.3041 5.58889 35.1141C5.59687 35.924 5.96512 36.6988 6.61434 37.2716C7.26356 37.8443 8.14179 38.1692 9.05989 38.1762C9.97799 38.1833 10.8625 37.8719 11.5229 37.3092L35.1689 16.4468C35.4972 16.157 35.9426 15.9941 36.407 15.9939C36.8714 15.9938 37.3169 16.1564 37.6454 16.446C37.9739 16.7356 38.1586 17.1285 38.1587 17.5383C38.1589 17.948 37.9746 18.341 37.6463 18.6308L15.9226 37.7942C15.5882 38.0792 15.3214 38.42 15.1379 38.7969C14.9544 39.1738 14.8578 39.5791 14.8538 39.9893C14.8497 40.3995 14.9383 40.8063 15.1144 41.1859C15.2904 41.5656 15.5504 41.9105 15.8792 42.2005C16.208 42.4906 16.5989 42.7199 17.0293 42.8752C17.4596 43.0306 17.9207 43.1087 18.3856 43.1052C18.8505 43.1016 19.31 43.0164 19.7372 42.8545C20.1644 42.6926 20.5508 42.4573 20.8738 42.1622L30.5819 33.5992C30.9121 33.3178 31.3543 33.1621 31.8134 33.1656C32.2724 33.1692 32.7116 33.3316 33.0362 33.618C33.3608 33.9044 33.5449 34.2917 33.5489 34.6967C33.5529 35.1017 33.3764 35.4919 33.0575 35.7832C32.7323 36.07 32.4743 36.4105 32.2982 36.7853C32.1222 37.16 32.0315 37.5617 32.0314 37.9674C32.0314 38.3731 32.1219 38.7748 32.2978 39.1496C32.4737 39.5245 32.7315 39.8651 33.0566 40.152C33.7132 40.7314 34.6038 41.057 35.5325 41.0572C35.9923 41.0572 36.4477 40.9774 36.8725 40.8222C37.2974 40.667 37.6835 40.4395 38.0087 40.1527L45.362 33.6656C45.6879 33.379 45.9466 33.0385 46.1232 32.6637C46.2999 32.2888 46.3911 31.8869 46.3916 31.481C46.3921 31.075 46.3018 30.673 46.1261 30.2978C45.9503 29.9226 45.6924 29.5817 45.3672 29.2945Z" fill="#6935D4"/>
<path d="M63.794 35.4714C62.534 35.4714 61.425 35.35 60.4671 35.107C59.5166 34.864 58.6324 34.5622 57.8145 34.2014V30.2921H58.1902C59.0155 30.9915 59.9255 31.5289 60.9203 31.9044C61.9151 32.2799 62.8803 32.4676 63.8161 32.4676C64.0519 32.4676 64.3614 32.4419 64.7446 32.3903C65.1351 32.3388 65.4483 32.2578 65.6841 32.1474C65.9714 32.0222 66.2146 31.8492 66.4136 31.6283C66.6125 31.4001 66.712 31.1019 66.712 30.7338C66.712 30.3215 66.5499 29.9865 66.2257 29.7289C65.9014 29.4712 65.5146 29.2834 65.0651 29.1656C64.5051 29.0184 63.9046 28.8785 63.2635 28.746C62.6298 28.6135 62.0366 28.4515 61.484 28.2601C60.2092 27.811 59.2955 27.2073 58.7429 26.449C58.1902 25.6906 57.9139 24.7409 57.9139 23.5998C57.9139 22.061 58.566 20.8168 59.8703 19.8671C61.1745 18.91 62.803 18.4314 64.7556 18.4314C65.7356 18.4314 66.7083 18.5308 67.6736 18.7296C68.6462 18.9284 69.5157 19.1971 70.282 19.5358V23.2905H69.9173C69.3057 22.7678 68.5578 22.3261 67.6736 21.9653C66.7967 21.6046 65.8941 21.4242 64.9656 21.4242C64.6046 21.4242 64.2804 21.45 63.993 21.5015C63.7056 21.553 63.4035 21.6524 63.0867 21.7997C62.8288 21.9175 62.604 22.0942 62.4124 22.3298C62.2282 22.558 62.1361 22.8157 62.1361 23.1028C62.1361 23.5224 62.2835 23.8574 62.5782 24.1078C62.8803 24.3507 63.4588 24.5716 64.3135 24.7704C64.8662 24.8955 65.3967 25.017 65.9051 25.1348C66.4209 25.2526 66.9699 25.4146 67.552 25.6207C68.6941 26.033 69.5415 26.5888 70.0941 27.2883C70.6542 27.9803 70.9342 28.8969 70.9342 30.0381C70.9342 31.6725 70.2894 32.9867 68.9999 33.9806C67.7178 34.9745 65.9825 35.4714 63.794 35.4714Z" fill="#222222"/>
<path d="M89.4149 35.1733H85.3033V24.2734L82.308 31.3081H79.4895L76.4942 24.2734V35.1733H72.6036V18.7296H77.3674L81.0148 26.8465L84.6512 18.7296H89.4149V35.1733Z" fill="#222222"/>
<path d="M90.6091 35.1733L96.1687 18.7296H100.678L106.238 35.1733H101.982L100.955 31.8161H95.7818L94.7539 35.1733H90.6091ZM100.048 28.8343L98.3682 23.412L96.6881 28.8343H100.048Z" fill="#222222"/>
<path d="M122.641 35.1733H117.601L113.014 29.1436H111.533V35.1733H107.421V18.7296H114.042C114.955 18.7296 115.751 18.7885 116.429 18.9063C117.107 19.0167 117.733 19.2523 118.308 19.6131C118.897 19.9886 119.365 20.4671 119.712 21.0487C120.058 21.623 120.231 22.3555 120.231 23.2464C120.231 24.5053 119.947 25.5287 119.38 26.3164C118.813 27.0968 118.054 27.719 117.103 28.1828L122.641 35.1733ZM115.987 23.7654C115.987 23.3531 115.906 22.9997 115.744 22.7052C115.589 22.4034 115.327 22.1715 114.959 22.0095C114.701 21.8991 114.414 21.8291 114.097 21.7997C113.78 21.7702 113.386 21.7555 112.914 21.7555H111.533V26.1839H112.715C113.29 26.1839 113.776 26.1508 114.174 26.0845C114.579 26.0109 114.922 25.86 115.202 25.6317C115.467 25.4256 115.663 25.179 115.788 24.8918C115.921 24.6047 115.987 24.2292 115.987 23.7654Z" fill="#222222"/>
<path d="M126.576 35.1733V21.8659H121.713V18.7296H135.573V21.8659H130.71V35.1733H126.576Z" fill="#222222"/>
<path d="M153.634 35.1733H149.522V24.2734L146.527 31.3081H143.708L140.713 24.2734V35.1733H136.822V18.7296H141.586L145.234 26.8465L148.87 18.7296H153.634V35.1733Z" fill="#222222"/>
<path d="M164.797 35.1733H155.933V32.302H158.298V21.6009H155.933V18.7296H164.797V21.6009H162.432V32.302H164.797V35.1733Z" fill="#222222"/>
<path d="M181.189 35.1733H177.21L170.866 23.7102V35.1733H167.086V18.7296H172.159L177.409 28.1496V18.7296H181.189V35.1733Z" fill="#222222"/>
<path d="M198.775 26.968C198.775 28.4994 198.439 29.8724 197.769 31.0872C197.098 32.2946 196.251 33.2223 195.227 33.8701C194.372 34.4223 193.44 34.7794 192.43 34.9413C191.428 35.096 190.36 35.1733 189.225 35.1733H184.074V18.7296H189.181C190.338 18.7296 191.421 18.8032 192.43 18.9505C193.44 19.0977 194.387 19.4548 195.271 20.0217C196.354 20.7137 197.209 21.6487 197.835 22.8267C198.462 23.9973 198.775 25.3777 198.775 26.968ZM194.53 26.9349C194.53 25.8526 194.343 24.9286 193.967 24.163C193.598 23.3899 193.027 22.7862 192.254 22.3518C191.694 22.0426 191.104 21.8733 190.485 21.8438C189.874 21.8144 189.14 21.7997 188.286 21.7997H188.208V32.0921H188.286C189.214 32.0921 189.995 32.0774 190.629 32.048C191.27 32.0112 191.878 31.8124 192.453 31.4516C193.13 31.0246 193.646 30.4356 194 29.6847C194.354 28.9337 194.53 28.0171 194.53 26.9349Z" fill="#222222"/>
<path d="M205.86 35.4714C204.6 35.4714 203.491 35.35 202.533 35.107C201.583 34.864 200.698 34.5622 199.88 34.2014V30.2921H200.256C201.082 30.9915 201.992 31.5289 202.986 31.9044C203.981 32.2799 204.946 32.4676 205.882 32.4676C206.118 32.4676 206.427 32.4419 206.811 32.3903C207.201 32.3388 207.514 32.2578 207.75 32.1474C208.037 32.0222 208.281 31.8492 208.48 31.6283C208.679 31.4001 208.778 31.1019 208.778 30.7338C208.778 30.3215 208.616 29.9865 208.292 29.7289C207.967 29.4712 207.581 29.2834 207.131 29.1656C206.571 29.0184 205.971 28.8785 205.33 28.746C204.696 28.6135 204.103 28.4515 203.55 28.2601C202.275 27.811 201.362 27.2073 200.809 26.449C200.256 25.6906 199.98 24.7409 199.98 23.5998C199.98 22.061 200.632 20.8168 201.936 19.8671C203.241 18.91 204.869 18.4314 206.822 18.4314C207.802 18.4314 208.774 18.5308 209.74 18.7296C210.712 18.9284 211.582 19.1971 212.348 19.5358V23.2905H211.983C211.372 22.7678 210.624 22.3261 209.74 21.9653C208.863 21.6046 207.96 21.4242 207.032 21.4242C206.671 21.4242 206.346 21.45 206.059 21.5015C205.772 21.553 205.47 21.6524 205.153 21.7997C204.895 21.9175 204.67 22.0942 204.478 22.3298C204.294 22.558 204.202 22.8157 204.202 23.1028C204.202 23.5224 204.35 23.8574 204.644 24.1078C204.946 24.3507 205.525 24.5716 206.38 24.7704C206.932 24.8955 207.463 25.017 207.971 25.1348C208.487 25.2526 209.036 25.4146 209.618 25.6207C210.76 26.033 211.608 26.5888 212.16 27.2883C212.72 27.9803 213 28.8969 213 30.0381C213 31.6725 212.355 32.9867 211.066 33.9806C209.784 34.9745 208.049 35.4714 205.86 35.4714Z" fill="#222222"/>
</svg>
