<svg width="280" height="280" viewBox="0 0 280 280" fill="none" xmlns="http://www.w3.org/2000/svg">
<path d="M260.915 189.746C259.045 187.871 256.824 186.383 254.38 185.368C251.937 184.353 249.317 183.831 246.672 183.831C244.027 183.831 241.407 184.353 238.964 185.368C236.52 186.383 234.3 187.871 232.429 189.746L218.615 203.595C216.727 205.491 214.164 206.559 211.491 206.561C208.819 206.564 206.254 205.503 204.362 203.61C202.47 201.717 201.405 199.149 201.403 196.469C201.4 193.79 202.459 191.219 204.347 189.322L273.632 119.857C275.601 118.008 277.179 115.78 278.272 113.307C279.366 110.834 279.952 108.166 279.997 105.461C280.042 102.757 279.544 100.071 278.533 97.5628C277.522 95.0548 276.018 92.7762 274.112 90.8621C272.205 88.948 269.934 87.4376 267.434 86.4205C264.933 85.4034 262.254 84.9005 259.556 84.9415C256.858 84.9826 254.196 85.5667 251.727 86.6594C249.259 87.752 247.035 89.3308 245.187 91.302L244.985 91.5039C244.057 92.468 242.946 93.2369 241.717 93.7659C240.489 94.2949 239.167 94.5734 237.83 94.585C236.494 94.5967 235.168 94.3413 233.93 93.8337C232.693 93.3262 231.569 92.5767 230.623 91.629C229.678 90.6813 228.93 89.5543 228.424 88.3138C227.917 87.0734 227.663 85.7442 227.674 84.404C227.686 83.0637 227.964 81.7392 228.491 80.5078C229.019 79.2763 229.786 78.1625 230.748 77.2314L242.217 65.7346C245.994 61.948 248.116 56.8122 248.116 51.457C248.116 46.1019 245.994 40.9661 242.217 37.1795C238.439 33.3928 233.316 31.2655 227.974 31.2655C222.632 31.2655 217.509 33.3928 213.731 37.1795L77.477 173.778C75.5876 175.671 73.0256 176.733 70.3546 176.732C67.6836 176.731 65.1224 175.667 63.2343 173.773C61.3463 171.879 60.2862 169.311 60.2871 166.633C60.288 163.955 61.35 161.388 63.2394 159.495L188.236 34.2119C191.905 30.4045 193.935 25.3051 193.889 20.012C193.843 14.719 191.725 9.65568 187.991 5.91276C184.257 2.16984 179.206 0.0467586 173.926 0.000763139C168.646 -0.0452323 163.559 1.98955 159.761 5.66686L104.18 61.3842C103.245 62.322 102.134 63.0659 100.912 63.5735C99.6893 64.081 98.3793 64.3422 97.0562 64.3422C94.3843 64.3422 91.8217 63.2782 89.9324 61.3842C88.043 59.4902 86.9816 56.9214 86.9816 54.2429C86.9816 51.5644 88.043 48.9956 89.9324 47.1016L90.0432 47.0007C91.9135 45.1264 93.3973 42.9011 94.4098 40.452C95.4223 38.0028 95.9437 35.3778 95.9441 32.7267C95.9446 30.0755 95.4242 27.4503 94.4125 25.0008C93.4009 22.5513 91.9179 20.3255 90.0482 18.4506C88.1785 16.5756 85.9587 15.0882 83.5155 14.0732C81.0724 13.0582 78.4537 12.5356 75.8091 12.5351C73.1645 12.5346 70.5456 13.0564 68.1021 14.0705C65.6586 15.0846 63.4383 16.5712 61.5679 18.4455L19.278 60.8392C15.5019 64.6258 13.3811 69.7611 13.382 75.1153C13.3829 80.4694 15.5056 85.604 19.283 89.3893C23.0604 93.1746 28.1831 95.3006 33.5242 95.2997C38.8653 95.2987 43.9872 93.1709 47.7632 89.3842L61.4471 75.6669C63.3461 73.8282 65.8896 72.8108 68.5297 72.8338C71.1697 72.8568 73.6952 73.9183 75.562 75.7898C77.4289 77.6613 78.4879 80.1929 78.5108 82.8394C78.5338 85.486 77.5189 88.0357 75.6847 89.9394L6.14792 159.657C4.22453 161.519 2.69037 163.747 1.63495 166.21C0.579535 168.672 0.023996 171.321 0.000760333 174.002C-0.0224753 176.682 0.487063 179.341 1.49962 181.822C2.51218 184.303 4.0075 186.557 5.89831 188.452C7.78913 190.347 10.0376 191.846 12.5125 192.862C14.9874 193.877 17.6391 194.387 20.3131 194.364C22.987 194.341 25.6295 193.784 28.0864 192.726C30.5434 191.668 32.7655 190.13 34.6232 188.202L34.7641 188.061C36.6521 186.167 39.2134 185.102 41.8844 185.101C44.5554 185.1 47.1174 186.163 49.0068 188.055C50.8961 189.948 51.9581 192.516 51.959 195.193C51.96 197.871 50.8999 200.439 49.0118 202.333L37.7949 213.577C34.1266 217.385 32.0968 222.484 32.1427 227.777C32.1886 233.07 34.3064 238.134 38.0402 241.877C41.774 245.62 46.8249 247.743 52.105 247.789C57.3851 247.835 62.4721 245.8 66.2701 242.123L202.263 105.787C204.151 103.893 206.712 102.828 209.383 102.827C212.054 102.826 214.616 103.889 216.505 105.781C218.395 107.674 219.457 110.242 219.457 112.919C219.458 115.597 218.398 118.165 216.51 120.059L91.5736 245.292C89.6503 247.154 88.1161 249.382 87.0607 251.845C86.0053 254.308 85.4497 256.957 85.4265 259.637C85.4032 262.318 85.9128 264.976 86.9253 267.457C87.9379 269.938 89.4332 272.192 91.324 274.087C93.2149 275.983 95.4633 277.482 97.9382 278.497C100.413 279.512 103.065 280.022 105.739 279.999C108.413 279.976 111.055 279.419 113.512 278.361C115.969 277.303 118.191 275.765 120.049 273.837L175.882 217.877C177.781 216.039 180.324 215.021 182.964 215.044C185.604 215.067 188.13 216.129 189.997 218C191.864 219.872 192.923 222.403 192.945 225.05C192.968 227.697 191.953 230.246 190.119 232.15C188.249 234.024 186.765 236.249 185.753 238.699C184.74 241.148 184.219 243.773 184.218 246.424C184.218 249.075 184.738 251.7 185.75 254.15C186.762 256.599 188.245 258.825 190.114 260.7C193.89 264.487 199.012 266.615 204.353 266.615C206.998 266.616 209.617 266.094 212.06 265.08C214.504 264.066 216.724 262.579 218.595 260.705L260.885 218.311C262.759 216.439 264.247 214.214 265.263 211.764C266.279 209.314 266.803 206.688 266.806 204.035C266.809 201.382 266.29 198.755 265.279 196.303C264.268 193.851 262.785 191.623 260.915 189.746Z" fill="white" fill-opacity="0.3"/>
</svg>
