<svg width="431" height="431" viewBox="0 0 431 431" fill="none" xmlns="http://www.w3.org/2000/svg">
<path d="M401.622 292.074C398.744 289.187 395.326 286.897 391.564 285.334C387.803 283.772 383.771 282.968 379.699 282.968C375.627 282.968 371.595 283.772 367.833 285.334C364.072 286.897 360.654 289.187 357.775 292.074L336.51 313.391C333.604 316.31 329.66 317.953 325.546 317.957C321.431 317.961 317.484 316.327 314.571 313.414C311.659 310.501 310.021 306.547 310.016 302.422C310.012 298.298 311.642 294.341 314.548 291.421L421.198 184.494C424.229 181.647 426.658 178.219 428.341 174.412C430.024 170.605 430.927 166.499 430.996 162.335C431.065 158.172 430.298 154.038 428.742 150.177C427.186 146.317 424.871 142.809 421.936 139.863C419.001 136.916 415.506 134.591 411.657 133.026C407.808 131.46 403.685 130.686 399.531 130.749C395.378 130.812 391.28 131.712 387.48 133.394C383.681 135.075 380.257 137.506 377.413 140.54L377.103 140.851C375.673 142.335 373.963 143.518 372.072 144.333C370.181 145.147 368.147 145.575 366.089 145.593C364.031 145.611 361.99 145.218 360.085 144.437C358.181 143.656 356.45 142.502 354.995 141.043C353.54 139.584 352.389 137.85 351.609 135.94C350.83 134.031 350.438 131.985 350.456 129.922C350.474 127.859 350.901 125.82 351.714 123.924C352.526 122.029 353.707 120.314 355.187 118.881L372.84 101.184C378.655 95.3556 381.921 87.4502 381.921 79.2071C381.921 70.964 378.655 63.0586 372.84 57.2298C367.026 51.4011 359.14 48.1265 350.917 48.1265C342.694 48.1265 334.808 51.4011 328.993 57.2298L119.259 267.494C116.351 270.407 112.407 272.043 108.296 272.042C104.184 272.04 100.242 270.401 97.3357 267.486C94.4295 264.571 92.7976 260.617 92.7991 256.496C92.8005 252.374 94.4352 248.422 97.3434 245.509L289.75 52.6619C295.396 46.8012 298.521 38.9518 298.45 30.8042C298.379 22.6567 295.119 14.8629 289.372 9.10143C283.625 3.34001 275.85 0.0719749 267.722 0.00117469C259.595 -0.0696255 251.764 3.06248 245.918 8.72291L160.363 94.4879C158.923 95.9314 157.213 97.0765 155.332 97.8578C153.45 98.639 151.434 99.0411 149.397 99.0411C145.284 99.0411 141.34 97.4033 138.432 94.4879C135.523 91.5725 133.89 87.6183 133.89 83.4954C133.89 79.3724 135.523 75.4182 138.432 72.5028L138.602 72.3475C141.481 69.4624 143.765 66.0371 145.324 62.2672C146.882 58.4972 147.685 54.4565 147.685 50.3757C147.686 46.2948 146.885 42.2538 145.328 38.4834C143.771 34.7129 141.488 31.2868 138.61 28.4007C135.732 25.5146 132.315 23.225 128.554 21.6627C124.794 20.1003 120.763 19.2958 116.692 19.2951C112.621 19.2944 108.59 20.0975 104.829 21.6585C101.067 23.2195 97.6497 25.5078 94.7706 28.3929L29.6743 93.6489C23.8619 99.4776 20.5973 107.382 20.5987 115.624C20.6002 123.865 23.8675 131.769 29.682 137.596C35.4965 143.422 43.3818 146.695 51.6033 146.693C59.8247 146.692 67.7089 143.417 73.5213 137.588L94.5846 116.473C97.5078 113.643 101.423 112.077 105.487 112.112C109.551 112.147 113.438 113.781 116.312 116.662C119.185 119.543 120.815 123.44 120.851 127.514C120.886 131.587 119.324 135.512 116.5 138.442L9.4634 245.757C6.50276 248.624 4.14124 252.053 2.51666 255.844C0.892069 259.635 0.0369367 263.713 0.00117037 267.839C-0.0345959 271.965 0.74973 276.057 2.30835 279.875C3.86697 283.694 6.16868 287.164 9.07919 290.082C11.9897 292.999 15.4507 295.307 19.2603 296.869C23.0699 298.431 27.1517 299.218 31.2676 299.182C35.3835 299.146 39.4511 298.289 43.233 296.66C47.0149 295.032 50.4354 292.664 53.2949 289.696L53.5119 289.479C56.4181 286.563 60.3606 284.925 64.4721 284.923C68.5835 284.922 72.5272 286.558 75.4354 289.471C78.3437 292.384 79.9783 296.337 79.9798 300.458C79.9812 304.58 78.3494 308.533 75.4432 311.448L58.1772 328.757C52.5306 334.617 49.4061 342.467 49.4768 350.614C49.5474 358.762 52.8074 366.556 58.5547 372.317C64.3021 378.079 72.0768 381.347 80.2045 381.417C88.3321 381.488 96.1623 378.356 102.009 372.696L311.34 162.836C314.246 159.92 318.189 158.282 322.3 158.28C326.411 158.279 330.355 159.915 333.263 162.828C336.172 165.741 337.806 169.693 337.808 173.815C337.809 177.937 336.177 181.89 333.271 184.805L140.958 377.574C137.997 380.441 135.636 383.87 134.011 387.661C132.387 391.452 131.532 395.53 131.496 399.656C131.46 403.782 132.244 407.874 133.803 411.692C135.362 415.511 137.663 418.981 140.574 421.899C143.484 424.816 146.945 427.124 150.755 428.686C154.564 430.248 158.646 431.035 162.762 430.999C166.878 430.963 170.946 430.106 174.728 428.477C178.51 426.849 181.93 424.481 184.79 421.513L270.732 335.376C273.655 332.545 277.57 330.979 281.634 331.015C285.698 331.05 289.585 332.684 292.459 335.565C295.333 338.446 296.963 342.342 296.998 346.416C297.033 350.49 295.471 354.415 292.648 357.345C289.769 360.23 287.485 363.655 285.926 367.425C284.368 371.195 283.565 375.236 283.565 379.317C283.564 383.398 284.365 387.439 285.922 391.209C287.479 394.98 289.762 398.406 292.64 401.292C298.453 407.121 306.337 410.396 314.558 410.397C318.629 410.398 322.66 409.595 326.421 408.034C330.183 406.473 333.6 404.185 336.479 401.3L401.576 336.044C404.461 333.161 406.751 329.736 408.315 325.965C409.879 322.195 410.686 318.152 410.69 314.068C410.695 309.985 409.896 305.94 408.34 302.166C406.784 298.392 404.501 294.963 401.622 292.074Z" fill="black" fill-opacity="0.02"/>
</svg>
