<svg width="32" height="34" viewBox="0 0 32 34" fill="none" xmlns="http://www.w3.org/2000/svg">
<path d="M15.1466 33.2566C15.6366 33.5183 16.2516 33.5166 16.7416 33.2549C30.0949 26.0816 31.0433 12.0666 31.0316 8.0816C31.0303 7.76132 30.9357 7.44835 30.7593 7.18104C30.5828 6.91373 30.3323 6.70368 30.0383 6.5766L16.6216 0.633267C16.4081 0.53915 16.1773 0.490681 15.9439 0.490968C15.7106 0.491255 15.4799 0.540291 15.2666 0.634934L1.94326 6.57827C1.65359 6.70541 1.40657 6.91315 1.23164 7.17673C1.05671 7.44031 0.961232 7.74862 0.956592 8.06493C0.899925 12.0299 1.69826 26.0749 15.1466 33.2566ZM10.4566 14.1549L14.2783 17.9766L21.4333 10.8216L23.7899 13.1783L14.2783 22.6899L8.09993 16.5116L10.4566 14.1549Z" fill="#6935D4"/>
</svg>
